<svg width="32" height="32" viewBox="0 0 32 32" fill="none" xmlns="http://www.w3.org/2000/svg">
<circle opacity="0.1" cx="16" cy="16" r="16" fill="#F41155"/>
<path d="M8.5 11H10.1667H23.5" stroke="#F41155" stroke-width="2" stroke-linecap="round" stroke-linejoin="round"/>
<path d="M12.6665 11.0001V9.33341C12.6665 8.89139 12.8421 8.46746 13.1547 8.1549C13.4672 7.84234 13.8911 7.66675 14.3332 7.66675H17.6665C18.1085 7.66675 18.5325 7.84234 18.845 8.1549C19.1576 8.46746 19.3332 8.89139 19.3332 9.33341V11.0001M21.8332 11.0001V22.6667C21.8332 23.1088 21.6576 23.5327 21.345 23.8453C21.0325 24.1578 20.6085 24.3334 20.1665 24.3334H11.8332C11.3911 24.3334 10.9672 24.1578 10.6547 23.8453C10.3421 23.5327 10.1665 23.1088 10.1665 22.6667V11.0001H21.8332Z" stroke="#F41155" stroke-width="2" stroke-linecap="round" stroke-linejoin="round"/>
</svg>
